<svg width="30" height="35" viewBox="0 0 30 35" fill="none" xmlns="http://www.w3.org/2000/svg">
<path fill-rule="evenodd" clip-rule="evenodd" d="M8.7265 8.72822C7.37849 8.89203 6.531 9.13597 5.42434 9.67874C2.46396 11.1306 0.521111 13.8608 0.0730868 17.1987C-0.0240692 17.9225 -0.0244506 20.0671 0.0724763 20.8444C0.437775 23.7746 1.5891 26.5238 3.41376 28.8231C5.4648 31.4075 8.24556 33.28 11.3224 34.1485C14.3999 35.0173 17.5529 34.8009 20.5745 33.5137C22.9916 32.484 25.2168 30.7101 26.8493 28.5114C28.5752 26.1868 29.6731 23.3974 29.9573 20.6154C30.0143 20.0568 30.0142 18.4289 29.9571 17.9049C29.6619 15.1967 28.6594 12.9419 27.0272 11.3152C25.6994 9.99178 24.0763 9.17338 22.1642 8.86313C21.3768 8.73536 20.1011 8.71673 19.2107 8.81999C18.4794 8.90482 17.2146 9.19808 16.562 9.43415C15.0366 9.98594 13.8102 10.6253 12.6967 11.4492C10.271 13.244 8.77273 15.5994 8.43591 18.1475C8.35448 18.7638 8.35475 19.775 8.43656 20.385C8.86385 23.5711 10.8388 25.9493 13.6527 26.6661C14.3222 26.8366 14.7313 26.8857 15.4835 26.8857C16.7024 26.8857 17.6806 26.6592 18.7358 26.1326C20.8975 25.0538 22.0869 23.0309 21.8621 20.8156C21.6149 18.3804 19.9581 16.8255 17.7168 16.9251C16.6585 16.9721 15.8863 17.267 15.3086 17.8446C14.5039 18.6493 14.283 19.6436 14.7022 20.5742L14.8127 20.8194L14.8759 20.6065C14.9615 20.318 15.15 20.0679 15.4151 19.8908C15.7296 19.6808 15.8685 19.6419 16.3043 19.6419C16.6386 19.6419 16.7132 19.6546 16.9043 19.7442C17.3723 19.9636 17.688 20.4029 17.7711 20.9506C17.9248 21.9638 17.194 22.9114 15.9912 23.2582C15.574 23.3785 14.8766 23.3768 14.4187 23.2544C13.2015 22.9289 12.3688 21.9352 12.0974 20.4837C12.0087 20.0096 12.0089 18.9678 12.0977 18.4926C12.2822 17.5057 12.7098 16.538 13.3307 15.7023C13.6421 15.2831 14.4073 14.5336 14.8237 14.24C15.5428 13.733 16.3581 13.3422 17.0678 13.1643C17.7004 13.0058 17.9243 12.9769 18.6902 12.9547C19.571 12.9293 20.1209 12.97 20.8727 13.1166C23.7238 13.6726 25.5422 15.6878 25.8892 18.6762C25.9638 19.3193 25.9457 20.5271 25.8513 21.2032C25.5433 23.4074 24.6199 25.4859 23.2105 27.1474C21.454 29.2181 19.1536 30.517 16.5142 30.9286C15.7124 31.0537 14.2618 31.0536 13.4602 30.9286C10.5584 30.4759 8.10905 28.9389 6.27206 26.418C5.60762 25.5062 5.152 24.6655 4.70905 23.5341C4.35104 22.6195 4.12321 21.7747 3.96345 20.7691C3.87229 20.1953 3.86316 20.0381 3.8624 19.0311C3.86167 18.0634 3.87229 17.8591 3.94661 17.4087C4.42063 14.5362 5.85759 12.4058 8.21785 11.0763C9.55799 10.3215 11.4532 9.85351 13.1896 9.84874C13.7132 9.84733 13.7129 9.84645 13.0594 9.52513C12.3332 9.16807 11.5624 8.92314 10.7689 8.79735C10.4034 8.73944 9.01968 8.69256 8.7265 8.72822Z" fill="#ED1C24"/>
<path fill-rule="evenodd" clip-rule="evenodd" d="M21.9885 0.0427176C20.7404 0.185837 19.6209 0.562092 18.7638 1.12655C18.1164 1.55285 17.448 2.28112 17.0607 2.98202C16.4975 4.00118 16.149 5.46314 16.148 6.80966L16.1477 7.26314L16.4245 7.23707C20.5772 6.84543 23.2604 4.5866 24.0237 0.839855C24.0772 0.5774 24.1327 0.281084 24.147 0.181332L24.1732 0L23.224 0.00496297C22.702 0.00767341 22.146 0.0246607 21.9885 0.0427176Z" fill="#0A7942"/>
</svg>
