<svg width="20" height="20" viewBox="0 0 20 20" fill="none" xmlns="http://www.w3.org/2000/svg">
<path d="M8.05559 10.9802C8.03125 10.7976 7.8619 10.6689 7.68055 10.6949C7.49819 10.7192 7.37052 10.8872 7.39517 11.0699C7.74755 13.6695 6.80945 16.2958 4.88625 18.0949C4.7519 18.2206 4.7449 18.4316 4.87089 18.5663C4.93625 18.6363 5.02489 18.6716 5.11424 18.6716C5.19593 18.6716 5.27757 18.642 5.34192 18.5816C7.42252 16.6351 8.43696 13.7935 8.05559 10.9802Z" fill="#13447E"/>
<path d="M3.22491 11.3697C3.22159 11.354 3.21726 11.339 3.21191 11.324C3.14456 10.978 3.10357 10.6263 3.08889 10.2776C3.08154 10.0936 2.92422 9.95188 2.74217 9.95821C2.55817 9.96556 2.41515 10.1209 2.42281 10.3049C2.43949 10.7043 2.48816 11.107 2.56747 11.5024C2.57048 11.5177 2.57481 11.5327 2.58013 11.5474C2.79749 12.7105 2.37409 13.904 1.46802 14.6714C1.32766 14.7907 1.31 15.0011 1.42904 15.1414C1.49537 15.2194 1.58905 15.2594 1.68371 15.2594C1.76004 15.2594 1.83638 15.2334 1.89908 15.1801C3.0022 14.2456 3.51026 12.7855 3.22491 11.3697Z" fill="#13447E"/>
<path d="M5.09889 14.0247C4.92719 13.958 4.73385 14.043 4.66716 14.2147C4.30978 15.1351 3.71742 15.9519 2.95464 16.5766C2.81229 16.693 2.79131 16.9033 2.90796 17.0456C2.97398 17.126 3.06966 17.1677 3.16599 17.1677C3.24034 17.1677 3.31534 17.143 3.37734 17.0923C4.22845 16.3949 4.88949 15.4835 5.28887 14.456C5.35555 14.2847 5.27023 14.0913 5.09889 14.0247Z" fill="#13447E"/>
<path d="M2.00014 4.57599C2.05948 4.61932 2.12816 4.64033 2.19649 4.64033C2.29915 4.64033 2.40049 4.59298 2.46585 4.50333C3.84333 2.61615 5.86385 1.32266 8.1554 0.86062C10.1886 0.450227 12.2455 0.715605 14.1027 1.62738C14.2684 1.70906 14.4681 1.64003 14.5487 1.47502C14.6301 1.30969 14.5617 1.10998 14.3964 1.02896C12.4065 0.051867 10.2026 -0.232146 8.02375 0.206882C5.56815 0.701932 3.40329 2.08809 1.92748 4.11028C1.81879 4.25897 1.85145 4.46766 2.00014 4.57599Z" fill="#13447E"/>
<path d="M0.861025 11.8474C0.859345 11.8394 0.854032 11.8334 0.851688 11.8254C0.436647 9.74253 0.727028 7.64498 1.6931 5.75781C1.77709 5.59412 1.71244 5.39312 1.54844 5.30909C1.38444 5.22475 1.18375 5.2901 1.09972 5.4541C0.0605939 7.48329 -0.250101 9.73987 0.201624 11.9794C0.20428 11.9918 0.211273 12.0018 0.214945 12.0134C0.24194 12.1451 0.270615 12.2754 0.302298 12.4048C0.339958 12.5568 0.475987 12.6581 0.626002 12.6581C0.652333 12.6581 0.679015 12.6551 0.70601 12.6488C0.8847 12.6045 0.994046 12.4238 0.950019 12.2451C0.917672 12.1141 0.887669 11.9814 0.861025 11.8474Z" fill="#13447E"/>
<path d="M8.50033 2.57278C5.4117 3.19549 3.06713 5.60343 2.52739 8.70706C2.49606 8.8884 2.6174 9.06108 2.79874 9.09276C2.98243 9.12409 3.15276 9.0024 3.18445 8.82141C3.67649 5.99046 5.81506 3.79458 8.63233 3.22616C12.37 2.47374 16.0231 4.90031 16.7762 8.63736C16.7781 8.64803 16.7808 8.65803 16.7838 8.66803C16.8442 8.97041 16.8962 9.26977 16.9385 9.55847C16.9628 9.72415 17.1052 9.84315 17.2678 9.84315C17.2842 9.84315 17.3005 9.84213 17.3168 9.83948C17.4988 9.81279 17.6249 9.64344 17.5982 9.46143C17.5528 9.15175 17.4965 8.83035 17.4315 8.50598C17.4291 8.49532 17.4265 8.4843 17.4232 8.47399C16.5831 4.39432 12.5871 1.74906 8.50033 2.57278Z" fill="#13447E"/>
<path d="M12.6985 9.45947C12.5531 8.73838 12.1358 8.11699 11.523 7.70996C10.9103 7.30258 10.1756 7.15925 9.45483 7.30391C8.37238 7.52225 7.52765 8.36135 7.30228 9.44177C7.26462 9.62214 7.38029 9.7988 7.56031 9.83646C7.74134 9.87381 7.91734 9.75844 7.955 9.57811C8.12568 8.75905 8.76609 8.12297 9.58648 7.9576C10.1332 7.84794 10.6896 7.95659 11.154 8.26498C11.6073 8.56633 11.9194 9.02239 12.0364 9.55245C12.0377 9.56577 12.0394 9.57913 12.0421 9.59245C12.2111 10.4289 12.2978 11.2826 12.3001 12.1297C12.3008 12.3137 12.4498 12.4624 12.6335 12.4624H12.6341C12.8185 12.462 12.9675 12.3124 12.9668 12.1284C12.9645 11.2516 12.8761 10.3682 12.7041 9.50244C12.7032 9.48814 12.7012 9.47381 12.6985 9.45947Z" fill="#13447E"/>
<path d="M10.3281 9.9379C10.2917 9.75753 10.116 9.64154 9.93536 9.67686C9.75499 9.71319 9.63798 9.88923 9.67431 10.0696C10.3304 13.3236 9.44827 16.6215 7.25442 19.1185C7.13308 19.2568 7.14675 19.4675 7.28473 19.5892C7.34806 19.6445 7.42674 19.6718 7.50476 19.6718C7.59742 19.6718 7.68942 19.6338 7.75545 19.5588C10.0877 16.9039 11.0255 13.3976 10.3281 9.9379Z" fill="#13447E"/>
<path d="M19.8009 8.02772C19.7989 8.01772 19.7922 8.01006 19.7892 8.00006C19.2758 5.48945 17.8394 3.29658 15.7412 1.82408C15.5905 1.71774 15.3822 1.75474 15.2768 1.90542C15.1711 2.0561 15.2075 2.26413 15.3581 2.3698C17.3237 3.74928 18.6674 5.80581 19.1422 8.16039C19.1438 8.16937 19.1492 8.1764 19.1515 8.18504C19.2835 8.84843 19.3442 9.52349 19.3315 10.1922C19.3282 10.3762 19.4745 10.5283 19.6585 10.5319H19.6652C19.8463 10.5319 19.9949 10.3865 19.9983 10.2049C20.0119 9.47888 19.9456 8.74681 19.8009 8.02772Z" fill="#13447E"/>
<path d="M15.0644 8.98276C14.7917 7.6293 14.0083 6.46352 12.8585 5.69977C11.7087 4.93571 10.3306 4.666 8.97745 4.93837C6.18452 5.50143 4.37 8.23237 4.93338 11.0253C4.93736 11.045 4.94302 11.0636 4.95006 11.0816C5.05706 11.6387 5.08073 12.2034 5.02042 12.7615C5.00076 12.9445 5.13308 13.1088 5.31646 13.1288C5.49546 13.1468 5.66384 13.0162 5.68349 12.8328C5.75283 12.1874 5.72217 11.5347 5.59246 10.8922C5.58848 10.8729 5.58282 10.8542 5.57578 10.8366C5.12105 8.42368 6.69554 6.07876 9.10914 5.59207C10.2876 5.35439 11.4884 5.58972 12.4895 6.25514C13.4849 6.91654 14.165 7.92398 14.4067 9.09374C14.4077 9.10074 14.4087 9.10808 14.41 9.11508C14.7807 10.9516 14.8154 12.8131 14.5133 14.647C14.4836 14.829 14.6066 15.0003 14.7883 15.0303C14.8067 15.033 14.8247 15.0347 14.8427 15.0347C15.003 15.0347 15.1444 14.9186 15.1714 14.7553C15.4851 12.8484 15.4504 10.9139 15.0681 9.00471C15.067 8.99745 15.0661 8.9901 15.0644 8.98276Z" fill="#13447E"/>
<path d="M17.4083 10.6986C17.2246 10.7102 17.0849 10.8686 17.0966 11.0523C17.2169 12.9635 17.0279 14.8716 16.5345 16.7235C16.4872 16.9012 16.5928 17.0839 16.7709 17.1312C16.7995 17.1388 16.8285 17.1429 16.8569 17.1429C17.0042 17.1429 17.1389 17.0442 17.1789 16.8948C17.691 14.9733 17.887 12.9934 17.762 11.0103C17.7507 10.8266 17.5963 10.6869 17.4083 10.6986Z" fill="#13447E"/>
<path d="M14.6038 15.8831C14.4248 15.8348 14.2431 15.9408 14.1958 16.1188C13.9418 17.0666 13.5954 17.9943 13.1653 18.8764C13.0847 19.0421 13.1537 19.2415 13.319 19.3221C13.3664 19.3452 13.4157 19.3558 13.465 19.3558C13.5884 19.3558 13.7071 19.2871 13.7647 19.1685C14.2134 18.248 14.5748 17.28 14.8395 16.2912C14.8875 16.1135 14.7819 15.9305 14.6038 15.8831Z" fill="#13447E"/>
<path d="M12.587 13.3299C12.4053 13.3092 12.2386 13.4403 12.2179 13.6233C11.9799 15.7078 11.2245 17.7306 10.0327 19.4725C9.92873 19.6242 9.96741 19.8315 10.1194 19.9355C10.1771 19.9752 10.2424 19.9939 10.3074 19.9939C10.4138 19.9939 10.5185 19.9432 10.5828 19.8489C11.836 18.0177 12.6304 15.8911 12.8804 13.6989C12.901 13.5159 12.7696 13.3506 12.587 13.3299Z" fill="#13447E"/>
</svg>
