<svg width="25" height="25" viewBox="0 0 25 25" fill="none" xmlns="http://www.w3.org/2000/svg">
<path fill-rule="evenodd" clip-rule="evenodd" d="M12.234 0.54248C8.91174 0.54248 8.4948 0.556858 7.18995 0.61563C5.88764 0.674654 4.99871 0.878716 4.2209 1.17812C3.41632 1.48737 2.73382 1.90104 2.05387 2.57427C1.37341 3.24725 0.955449 3.92274 0.641978 4.71881C0.338701 5.4889 0.132269 6.36896 0.0736529 7.6574C0.0152913 8.94887 0 9.36179 0 12.65C0 15.9382 0.0147815 16.3496 0.0739078 17.6411C0.133798 18.93 0.339976 19.8098 0.642233 20.5796C0.954939 21.376 1.3729 22.0515 2.05311 22.7244C2.7328 23.3979 3.4153 23.8126 4.21937 24.1218C4.99769 24.4213 5.88688 24.6253 7.18893 24.6843C8.49378 24.7431 8.91047 24.7575 12.2325 24.7575C15.555 24.7575 15.9707 24.7431 17.2756 24.6843C18.5779 24.6253 19.4678 24.4213 20.2461 24.1218C21.0505 23.8126 21.7319 23.3979 22.4116 22.7244C23.0921 22.0515 23.5101 21.376 23.8235 20.5799C24.1243 19.8098 24.3307 18.9297 24.3918 17.6413C24.4505 16.3498 24.4658 15.9382 24.4658 12.65C24.4658 9.36179 24.4505 8.94912 24.3918 7.65766C24.3307 6.36871 24.1243 5.4889 23.8235 4.71906C23.5101 3.92274 23.0921 3.24725 22.4116 2.57427C21.7312 1.90079 21.0507 1.48712 20.2454 1.17812C19.4655 0.878716 18.5761 0.674654 17.2738 0.61563C15.9689 0.556858 15.5535 0.54248 12.2302 0.54248H12.234ZM11.1369 2.72422C11.3499 2.72389 11.5792 2.72399 11.8265 2.7241L12.2343 2.72422C15.5005 2.72422 15.8876 2.73582 17.1774 2.79384C18.3701 2.84781 19.0175 3.04506 19.4487 3.21078C20.0196 3.43023 20.4266 3.69255 20.8545 4.11631C21.2826 4.54007 21.5477 4.94365 21.7699 5.50866C21.9373 5.93493 22.1369 6.57561 22.1912 7.75608C22.2498 9.0324 22.2625 9.4158 22.2625 12.6469C22.2625 15.8781 22.2498 16.2615 22.1912 17.5378C22.1366 18.7183 21.9373 19.359 21.7699 19.7852C21.5482 20.3502 21.2826 20.7526 20.8545 21.1761C20.4263 21.5998 20.0198 21.8621 19.4487 22.0816C19.018 22.2481 18.3701 22.4448 17.1774 22.4988C15.8879 22.5568 15.5005 22.5694 12.2343 22.5694C8.9678 22.5694 8.58068 22.5568 7.29111 22.4988C6.09839 22.4443 5.45106 22.2471 5.0196 22.0813C4.44872 21.8619 4.04096 21.5996 3.6128 21.1758C3.18464 20.7521 2.9196 20.3495 2.69736 19.7842C2.52992 19.3579 2.33037 18.7173 2.27609 17.5368C2.21747 16.2605 2.20575 15.8771 2.20575 12.6439C2.20575 9.41075 2.21747 9.02937 2.27609 7.75305C2.33063 6.57259 2.52992 5.93191 2.69736 5.50512C2.91909 4.94011 3.18464 4.53654 3.6128 4.11278C4.04096 3.68902 4.44872 3.4267 5.0196 3.20675C5.45081 3.04027 6.09839 2.84353 7.29111 2.7893C8.41961 2.73885 8.85694 2.72371 11.1369 2.72119V2.72422ZM17.2961 6.18721C17.2961 5.38487 17.9537 4.73488 18.7641 4.73488V4.73438C19.5745 4.73438 20.2321 5.38512 20.2321 6.18721C20.2321 6.98929 19.5745 7.64004 18.7641 7.64004C17.9537 7.64004 17.2961 6.98929 17.2961 6.18721ZM12.2338 6.43213C8.76455 6.43226 5.95186 9.21612 5.95186 12.6497C5.95186 16.0834 8.76469 18.866 12.234 18.866C15.7034 18.866 18.5152 16.0834 18.5152 12.6497C18.5152 9.21604 15.7031 6.43213 12.2338 6.43213ZM16.3122 12.65C16.3122 10.421 14.4864 8.61426 12.2345 8.61426C9.98238 8.61426 8.15686 10.421 8.15686 12.65C8.15686 14.8788 9.98238 16.6858 12.2345 16.6858C14.4864 16.6858 16.3122 14.8788 16.3122 12.65Z" fill="white"/>
</svg>
