<svg width="25" height="25" viewBox="0 0 25 25" fill="none" xmlns="http://www.w3.org/2000/svg">
<path d="M11.8795 6.86882L11.9326 7.91618L11.0487 7.78794C7.83129 7.29631 5.02051 5.62908 2.634 2.82897L1.46726 1.43961L1.16674 2.4656C0.530336 4.75271 0.936926 7.16806 2.26277 8.79255C2.96988 9.6903 2.81078 9.81855 1.59101 9.28417C1.16674 9.11318 0.795504 8.98493 0.760148 9.04905C0.636403 9.19868 1.06067 11.1438 1.39655 11.9133C1.85618 12.982 2.7931 14.0294 3.81842 14.6493L4.68463 15.1409L3.65932 15.1623C2.66936 15.1623 2.634 15.1836 2.74007 15.6325C3.09363 17.0219 4.49018 18.4967 6.04583 19.138L7.14185 19.5868L6.18725 20.2708C4.77302 21.2541 3.1113 21.8098 1.44958 21.8526C0.654081 21.874 0 21.9595 0 22.0236C0 22.2373 2.1567 23.4343 3.41183 23.9046C7.17721 25.2939 11.6497 24.6954 15.0085 22.3228C17.395 20.6342 19.7815 17.2784 20.8952 14.0294C21.4963 12.298 22.0973 9.13455 22.0973 7.61694C22.0973 6.63369 22.1504 6.50544 23.1403 5.32983C23.7237 4.64583 24.2717 3.89771 24.3778 3.68397C24.5545 3.27784 24.5369 3.27784 23.6353 3.64122C22.1327 4.28246 21.9205 4.19696 22.663 3.23509C23.211 2.5511 23.8651 1.31136 23.8651 0.947985C23.8651 0.883861 23.5999 0.990735 23.2994 1.18311C22.9812 1.39686 22.2741 1.71748 21.7438 1.90985L20.7892 2.27323L19.9229 1.56786C19.4456 1.18311 18.7739 0.755612 18.4203 0.627363C17.5188 0.328115 16.1399 0.370865 15.3267 0.712862C13.117 1.67473 11.7204 4.15421 11.8795 6.86882Z" fill="white"/>
</svg>
