<svg width="25" height="15" viewBox="0 0 25 15" fill="none" xmlns="http://www.w3.org/2000/svg">
<path fill-rule="evenodd" clip-rule="evenodd" d="M23.89 1.00014C24.0714 0.435957 23.89 0.0256443 23.0868 0.0256443H20.4179C19.7443 0.0256443 19.4333 0.38467 19.2519 0.769339C19.2519 0.769339 17.8787 4.05185 15.9612 6.18036C15.3394 6.79583 15.0543 7.00099 14.7175 7.00099C14.5361 7.00099 14.3029 6.79583 14.3029 6.23165V0.974495C14.3029 0.307735 14.0956 0 13.5256 0H9.32799C8.91342 0 8.65431 0.307734 8.65431 0.61547C8.65431 1.25659 9.61302 1.41046 9.71666 3.20558V7.10357C9.71666 7.94984 9.5612 8.10371 9.22435 8.10371C8.31746 8.10371 6.11502 4.79555 4.79355 1.02579C4.53444 0.282091 4.27533 0 3.60164 0H0.906888C0.129556 0 0 0.359023 0 0.743693C0 1.4361 0.906889 4.92377 4.22351 9.53981C6.42595 12.6941 9.5612 14.3866 12.3855 14.3866C14.0956 14.3866 14.3029 14.002 14.3029 13.3609V10.9759C14.3029 10.2066 14.4584 10.0783 15.0025 10.0783C15.3912 10.0783 16.0908 10.2835 17.6714 11.7965C19.4851 13.5917 19.7961 14.4123 20.8066 14.4123H23.4755C24.2528 14.4123 24.6155 14.0276 24.4083 13.2839C24.1751 12.5402 23.2941 11.4632 22.154 10.1809C21.5321 9.46287 20.5993 8.66789 20.3143 8.28322C19.9256 7.77033 20.0293 7.56517 20.3143 7.10357C20.2884 7.10357 23.5532 2.53882 23.89 1.00014Z" fill="white"/>
</svg>
