<svg width="26" height="19" viewBox="0 0 26 19" fill="none" xmlns="http://www.w3.org/2000/svg">
<path d="M25.4037 3.52192C25.1054 2.39446 24.2261 1.50664 23.1097 1.20532C21.0865 0.657715 12.973 0.657715 12.973 0.657715C12.973 0.657715 4.85941 0.657715 2.83607 1.20532C1.71966 1.50664 0.840442 2.39446 0.542064 3.52192C0 5.5653 0 9.82884 0 9.82884C0 9.82884 0 14.0922 0.542064 16.1358C0.840442 17.2632 1.71966 18.151 2.83607 18.4525C4.85941 19 12.973 19 12.973 19C12.973 19 21.0865 19 23.1097 18.4525C24.2261 18.151 25.1054 17.2632 25.4037 16.1358C25.9459 14.0922 25.9459 9.82884 25.9459 9.82884C25.9459 9.82884 25.9459 5.5653 25.4037 3.52192Z" fill="white"/>
<path d="M10.5403 14.2152V6.24023L17.0268 10.2279L10.5403 14.2152Z" fill="#212121"/>
</svg>
