<svg width="108" height="65" viewBox="0 0 108 65" fill="none" xmlns="http://www.w3.org/2000/svg">
<g filter="url(#filter0_f)">
<path d="M5.18044 62.5712V52.2103M10.3609 57.3908H0H10.3609Z" stroke="#8BD2BD" stroke-miterlimit="10"/>
<path d="M5.18044 37.0676V26.7067M10.3609 31.8871H0H10.3609Z" stroke="#8BD2BD" stroke-miterlimit="10"/>
<path d="M5.18044 12.3609V2M10.3609 7.18044H0H10.3609Z" stroke="#8BD2BD" stroke-miterlimit="10"/>
<path d="M5.18044 62.5712V52.2103M10.3609 57.3908H0H10.3609Z" stroke="#13447E" stroke-width="2" stroke-miterlimit="10"/>
<path d="M5.18044 37.0676V26.7067M10.3609 31.8871H0H10.3609Z" stroke="#13447E" stroke-width="2" stroke-miterlimit="10"/>
<path d="M5.18044 12.3609V2M10.3609 7.18044H0H10.3609Z" stroke="#13447E" stroke-width="2" stroke-miterlimit="10"/>
<path d="M29.0901 62.5712V52.2103M34.2706 57.3908H23.9097H34.2706Z" stroke="#8BD2BD" stroke-miterlimit="10"/>
<path d="M29.0901 37.0676V26.7067M34.2706 31.8871H23.9097H34.2706Z" stroke="#8BD2BD" stroke-miterlimit="10"/>
<path d="M29.0906 12.3609V2M34.271 7.18044H23.9102H34.271Z" stroke="#8BD2BD" stroke-miterlimit="10"/>
<path d="M29.0901 62.5712V52.2103M34.2706 57.3908H23.9097H34.2706Z" stroke="#13447E" stroke-width="2" stroke-miterlimit="10"/>
<path d="M29.0901 37.0676V26.7067M34.2706 31.8871H23.9097H34.2706Z" stroke="#13447E" stroke-width="2" stroke-miterlimit="10"/>
<path d="M29.0906 12.3609V2M34.271 7.18044H23.9102H34.271Z" stroke="#13447E" stroke-width="2" stroke-miterlimit="10"/>
<path d="M53.0003 37.0676V26.7067M58.1807 31.8871H47.8198H58.1807Z" stroke="#8BD2BD" stroke-miterlimit="10"/>
<path d="M53.0003 12.3609V2M58.1807 7.18044H47.8198H58.1807Z" stroke="#8BD2BD" stroke-miterlimit="10"/>
<path d="M53.0003 37.0676V26.7067M58.1807 31.8871H47.8198H58.1807Z" stroke="#13447E" stroke-width="2" stroke-miterlimit="10"/>
<path d="M53.0003 12.3609V2M58.1807 7.18044H47.8198H58.1807Z" stroke="#13447E" stroke-width="2" stroke-miterlimit="10"/>
<path d="M76.9094 37.0676V26.7067M82.0899 31.8871H71.729H82.0899Z" stroke="#8BD2BD" stroke-miterlimit="10"/>
<path d="M76.9099 12.3609V2M82.0904 7.18044H71.7295H82.0904Z" stroke="#8BD2BD" stroke-miterlimit="10"/>
<path d="M76.9094 37.0676V26.7067M82.0899 31.8871H71.729H82.0899Z" stroke="#13447E" stroke-width="2" stroke-miterlimit="10"/>
<path d="M76.9099 12.3609V2M82.0904 7.18044H71.7295H82.0904Z" stroke="#13447E" stroke-width="2" stroke-miterlimit="10"/>
<path d="M100.82 37.0676V26.7067M106 31.8871H95.6392H106Z" stroke="#8BD2BD" stroke-miterlimit="10"/>
<path d="M100.82 12.3609V2M106 7.18044H95.6392H106Z" stroke="#8BD2BD" stroke-miterlimit="10"/>
<path d="M100.82 37.0676V26.7067M106 31.8871H95.6392H106Z" stroke="#13447E" stroke-width="2" stroke-miterlimit="10"/>
<path d="M100.82 12.3609V2M106 7.18044H95.6392H106Z" stroke="#13447E" stroke-width="2" stroke-miterlimit="10"/>
</g>
<defs>
<filter id="filter0_f" x="-2" y="0" width="110" height="64.5712" filterUnits="userSpaceOnUse" color-interpolation-filters="sRGB">
<feFlood flood-opacity="0" result="BackgroundImageFix"/>
<feBlend mode="normal" in="SourceGraphic" in2="BackgroundImageFix" result="shape"/>
<feGaussianBlur stdDeviation="1" result="effect1_foregroundBlur"/>
</filter>
</defs>
</svg>
