<svg width="43" height="82" viewBox="0 0 43 82" fill="none" xmlns="http://www.w3.org/2000/svg">
<g filter="url(#filter0_f)">
<path d="M3.49096 75.9406C3.49096 74.9279 2.7676 74.1955 1.75488 74.1955C0.742173 74.1955 0.00976563 74.9188 0.00976563 75.9316C0.00976563 76.9443 0.742171 77.6767 1.74584 77.6767C2.74951 77.6857 3.48192 76.9443 3.49096 75.9406Z" fill="#0B315E"/>
<path d="M3.49081 58.5887C3.49985 57.576 2.78553 56.8345 1.77282 56.8165C0.751067 56.8074 0.00961522 57.5217 0.000573157 58.5254C-0.00846891 59.5381 0.705857 60.2886 1.70953 60.2976C2.72224 60.3157 3.47273 59.5833 3.49081 58.5887Z" fill="#0B315E"/>
<path d="M0.000572108 41.2012C0.00961417 42.2049 0.751064 42.9373 1.76378 42.9283C2.76744 42.9192 3.49985 42.1687 3.49081 41.1651C3.48177 40.1524 2.74032 39.438 1.72761 39.4471C0.714899 39.4471 -0.00846996 40.1885 0.000572108 41.2012Z" fill="#0B315E"/>
<path d="M0.000756341 23.732C-0.0263699 24.7447 0.678913 25.5132 1.67354 25.5494C2.68625 25.5765 3.45483 24.8713 3.49099 23.8766C3.51812 22.8639 2.81284 22.0953 1.81821 22.0682C0.787418 22.0321 0.0278825 22.7283 0.000756341 23.732Z" fill="#0B315E"/>
<path d="M0.000572113 6.38953C-0.00846995 7.40224 0.714898 8.15274 1.70953 8.16178C2.72224 8.17082 3.47272 7.44746 3.48177 6.44379C3.49081 5.43108 2.76744 4.68962 1.76378 4.68058C0.751064 4.67154 0.00961418 5.38586 0.000572113 6.38953Z" fill="#0B315E"/>
<path d="M12.1807 67.2425C12.1716 66.2298 11.4392 65.5065 10.4265 65.5155C9.41379 65.5155 8.69043 66.2479 8.69043 67.2606C8.69043 68.2733 9.43188 68.9967 10.4446 68.9967C11.4483 68.9877 12.1807 68.2462 12.1807 67.2425Z" fill="#0B315E"/>
<path d="M10.3088 51.6088C11.3306 51.6631 12.1172 50.9759 12.1805 49.9903C12.2348 48.9776 11.5476 48.1819 10.562 48.1276C9.54026 48.0734 8.7536 48.7515 8.69935 49.7371C8.63606 50.7679 9.32325 51.5546 10.3088 51.6088Z" fill="#0B315E"/>
<path d="M8.69022 32.4214C8.66309 33.4341 9.35933 34.2027 10.363 34.2298C11.3757 34.257 12.1443 33.5517 12.1805 32.5571C12.2076 31.5443 11.5023 30.7758 10.5077 30.7486C9.47688 30.7215 8.71735 31.4178 8.69022 32.4214Z" fill="#0B315E"/>
<path d="M8.69051 15.1422C8.69956 16.1458 9.45005 16.8692 10.4628 16.8511C11.4664 16.8421 12.1898 16.0916 12.1808 15.0789C12.1627 14.0752 11.4212 13.3609 10.4085 13.3699C9.3958 13.388 8.68147 14.1294 8.69051 15.1422Z" fill="#0B315E"/>
<path d="M20.8699 58.5619C20.8699 57.5492 20.1465 56.8258 19.1338 56.8168C18.1211 56.8168 17.3887 57.5401 17.3887 58.5529C17.3887 59.5656 18.1211 60.298 19.1247 60.298C20.1284 60.298 20.8699 59.5656 20.8699 58.5619Z" fill="#0B315E"/>
<path d="M17.3797 41.2191C17.3978 42.2227 18.1483 42.9461 19.161 42.928C20.1647 42.9099 20.8881 42.1594 20.87 41.1467C20.8519 40.1431 20.1104 39.4287 19.0887 39.4468C18.076 39.4559 17.3616 40.1973 17.3797 41.2191Z" fill="#0B315E"/>
<path d="M17.3795 23.7682C17.3704 24.7809 18.0938 25.5314 19.0884 25.5404C20.1011 25.5495 20.8516 24.8261 20.8607 23.8225C20.8697 22.8097 20.1554 22.0683 19.1427 22.0593C18.13 22.0502 17.3885 22.7645 17.3795 23.7682Z" fill="#0B315E"/>
<path d="M29.5596 49.9358C29.5867 48.9231 28.8814 48.1545 27.8868 48.1274C26.8651 48.1002 26.1055 48.7965 26.0784 49.7911C26.0513 50.8038 26.7565 51.5724 27.7512 51.6085C28.7548 51.6447 29.5234 50.9304 29.5596 49.9358Z" fill="#0B315E"/>
<path d="M26.0692 32.4486C26.0511 33.4613 26.7654 34.2208 27.7691 34.2389C28.7818 34.257 29.5413 33.5336 29.5594 32.539C29.5775 31.5263 28.8632 30.7758 27.8595 30.7577C26.8378 30.7306 26.0873 31.4449 26.0692 32.4486Z" fill="#0B315E"/>
<path d="M34.7586 41.21C34.7767 42.2137 35.5182 42.9371 36.5309 42.919C37.5345 42.9009 38.2579 42.1504 38.2398 41.1467C38.2217 40.1431 37.4803 39.4287 36.4676 39.4378C35.4639 39.4559 34.7405 40.1973 34.7586 41.21Z" fill="#0B315E"/>
</g>
<defs>
<filter id="filter0_f" x="-4" y="0.680542" width="46.2402" height="80.9962" filterUnits="userSpaceOnUse" color-interpolation-filters="sRGB">
<feFlood flood-opacity="0" result="BackgroundImageFix"/>
<feBlend mode="normal" in="SourceGraphic" in2="BackgroundImageFix" result="shape"/>
<feGaussianBlur stdDeviation="2" result="effect1_foregroundBlur"/>
</filter>
</defs>
</svg>
