<svg width="38" height="130" viewBox="0 0 38 130" fill="none" xmlns="http://www.w3.org/2000/svg">
<g filter="url(#filter0_f)">
<path d="M4.54417 13.0684C7.04834 13.0684 9.07841 11.0384 9.07841 8.5342C9.07841 6.03003 7.04834 4 4.54417 4C2.04 4 0.0100098 6.03003 0.0100098 8.5342C0.0100098 11.0384 2.04 13.0684 4.54417 13.0684Z" fill="#FFE031"/>
<path d="M33.3709 8.5342C33.3709 11.0319 31.3457 13.0684 28.8367 13.0684C26.339 13.0684 24.3025 11.0432 24.3025 8.5342C24.3025 6.03645 26.3277 4 28.8367 4C31.3457 4 33.3709 6.0252 33.3709 8.5342Z" fill="#FFE031"/>
<path d="M4.54515 31.8353C7.04932 31.8353 9.07938 29.8052 9.07938 27.3011C9.07938 24.7969 7.04932 22.7668 4.54515 22.7668C2.04098 22.7668 0.0109863 24.7969 0.0109863 27.3011C0.0109863 29.8052 2.04098 31.8353 4.54515 31.8353Z" fill="#FFE031"/>
<path d="M33.3709 27.3011C33.3709 29.7988 31.3457 31.8353 28.8367 31.8353C26.339 31.8353 24.3025 29.8101 24.3025 27.3011C24.3025 24.7921 26.3277 22.7668 28.8367 22.7668C31.3457 22.7781 33.3709 24.8033 33.3709 27.3011Z" stroke="#FFE031" stroke-miterlimit="10"/>
<path d="M4.54515 50.6133C7.04932 50.6133 9.07938 48.5833 9.07938 46.0791C9.07938 43.575 7.04932 41.5449 4.54515 41.5449C2.04098 41.5449 0.0109863 43.575 0.0109863 46.0791C0.0109863 48.5833 2.04098 50.6133 4.54515 50.6133Z" fill="#1D262D"/>
<path d="M33.3709 46.0791C33.3709 48.5769 31.3457 50.6133 28.8367 50.6133C26.339 50.6133 24.3025 48.5881 24.3025 46.0791C24.3025 43.5701 26.3277 41.5449 28.8367 41.5449C31.3457 41.5449 33.3709 43.5814 33.3709 46.0791Z" stroke="#FFE031" stroke-miterlimit="10"/>
<path d="M4.54515 69.3915C7.04932 69.3915 9.07938 67.3615 9.07938 64.8573C9.07938 62.3531 7.04932 60.3231 4.54515 60.3231C2.04098 60.3231 0.0109863 62.3531 0.0109863 64.8573C0.0109863 67.3615 2.04098 69.3915 4.54515 69.3915Z" fill="#1D262D"/>
<path d="M33.3709 64.8573C33.3709 67.3551 31.3457 69.3915 28.8367 69.3915C26.339 69.3915 24.3025 67.3663 24.3025 64.8573C24.3025 62.3596 26.3277 60.3231 28.8367 60.3231C31.3457 60.3231 33.3709 62.3483 33.3709 64.8573Z" stroke="#FFE031" stroke-miterlimit="10"/>
<path d="M9.0684 83.6354C9.0684 86.1331 7.04316 88.1696 4.53416 88.1696C2.03642 88.1696 0 86.1444 0 83.6354C0 81.1376 2.02517 79.1012 4.53416 79.1012C7.04316 79.1012 9.0684 81.1264 9.0684 83.6354Z" fill="#1D262D"/>
<path d="M33.3709 83.6354C33.3709 86.1331 31.3457 88.1696 28.8367 88.1696C26.339 88.1696 24.3025 86.1444 24.3025 83.6354C24.3025 81.1376 26.3277 79.1012 28.8367 79.1012C31.3457 79.1012 33.3709 81.1264 33.3709 83.6354Z" stroke="#FFE031" stroke-miterlimit="10"/>
<path d="M9.0684 102.402C9.0684 104.9 7.04316 106.936 4.53416 106.936C2.03642 106.936 0 104.911 0 102.402C0 99.9045 2.02517 97.868 4.53416 97.868C7.04316 97.868 9.0684 99.9045 9.0684 102.402Z" fill="#FFE031"/>
<path d="M33.3709 102.402C33.3709 104.9 31.3457 106.936 28.8367 106.936C26.339 106.936 24.3025 104.911 24.3025 102.402C24.3025 99.9045 26.3277 97.868 28.8367 97.868C31.3457 97.868 33.3709 99.9045 33.3709 102.402Z" stroke="#FFE031" stroke-miterlimit="10"/>
<path d="M9.0684 121.18C9.0684 123.678 7.04316 125.715 4.53416 125.715C2.03642 125.715 0 123.689 0 121.18C0 118.683 2.02517 116.646 4.53416 116.646C7.04316 116.646 9.0684 118.671 9.0684 121.18Z" fill="#FFE031"/>
<path d="M33.3709 121.18C33.3709 123.678 31.3457 125.715 28.8367 125.715C26.339 125.715 24.3025 123.689 24.3025 121.18C24.3025 118.683 26.3277 116.646 28.8367 116.646C31.3457 116.646 33.3709 118.671 33.3709 121.18Z" fill="#FFE031"/>
</g>
<defs>
<filter id="filter0_f" x="-4" y="0" width="41.8709" height="129.715" filterUnits="userSpaceOnUse" color-interpolation-filters="sRGB">
<feFlood flood-opacity="0" result="BackgroundImageFix"/>
<feBlend mode="normal" in="SourceGraphic" in2="BackgroundImageFix" result="shape"/>
<feGaussianBlur stdDeviation="2" result="effect1_foregroundBlur"/>
</filter>
</defs>
</svg>
