<svg width="25" height="62" viewBox="0 0 25 62" fill="none" xmlns="http://www.w3.org/2000/svg">
<path d="M0.658302 1.37868C1.02187 1.37868 1.31661 1.07005 1.31661 0.689337C1.31661 0.308624 1.02187 0 0.658302 0C0.294731 0 0 0.308624 0 0.689337C0 1.07005 0.294731 1.37868 0.658302 1.37868Z" fill="white"/>
<path d="M6.5792 1.37868C6.94277 1.37868 7.2375 1.07005 7.2375 0.689337C7.2375 0.308624 6.94277 0 6.5792 0C6.21563 0 5.9209 0.308624 5.9209 0.689337C5.9209 1.07005 6.21563 1.37868 6.5792 1.37868Z" fill="white"/>
<path d="M12.5001 1.37868C12.8637 1.37868 13.1584 1.07005 13.1584 0.689337C13.1584 0.308624 12.8637 0 12.5001 0C12.1365 0 11.8418 0.308624 11.8418 0.689337C11.8418 1.07005 12.1365 1.37868 12.5001 1.37868Z" fill="white"/>
<path d="M18.421 1.37868C18.7846 1.37868 19.0793 1.07005 19.0793 0.689337C19.0793 0.308624 18.7846 0 18.421 0C18.0574 0 17.7627 0.308624 17.7627 0.689337C17.7627 1.07005 18.0574 1.37868 18.421 1.37868Z" fill="white"/>
<path d="M24.3414 1.37868C24.705 1.37868 24.9997 1.07005 24.9997 0.689337C24.9997 0.308624 24.705 0 24.3414 0C23.9778 0 23.6831 0.308624 23.6831 0.689337C23.6831 1.07005 23.9778 1.37868 24.3414 1.37868Z" fill="white"/>
<path d="M0.658302 6.88943C1.02187 6.88943 1.31661 6.5808 1.31661 6.20009C1.31661 5.81937 1.02187 5.51074 0.658302 5.51074C0.294731 5.51074 0 5.81937 0 6.20009C0 6.5808 0.294731 6.88943 0.658302 6.88943Z" fill="white"/>
<path d="M6.5792 6.88943C6.94277 6.88943 7.2375 6.5808 7.2375 6.20009C7.2375 5.81937 6.94277 5.51074 6.5792 5.51074C6.21563 5.51074 5.9209 5.81937 5.9209 6.20009C5.9209 6.5808 6.21563 6.88943 6.5792 6.88943Z" fill="white"/>
<path d="M12.5001 6.88943C12.8637 6.88943 13.1584 6.5808 13.1584 6.20009C13.1584 5.81937 12.8637 5.51074 12.5001 5.51074C12.1365 5.51074 11.8418 5.81937 11.8418 6.20009C11.8418 6.5808 12.1365 6.88943 12.5001 6.88943Z" fill="white"/>
<path d="M18.421 6.88943C18.7846 6.88943 19.0793 6.5808 19.0793 6.20009C19.0793 5.81937 18.7846 5.51074 18.421 5.51074C18.0574 5.51074 17.7627 5.81937 17.7627 6.20009C17.7627 6.5808 18.0574 6.88943 18.421 6.88943Z" fill="white"/>
<path d="M24.3414 6.88943C24.705 6.88943 24.9997 6.5808 24.9997 6.20009C24.9997 5.81937 24.705 5.51074 24.3414 5.51074C23.9778 5.51074 23.6831 5.81937 23.6831 6.20009C23.6831 6.5808 23.9778 6.88943 24.3414 6.88943Z" fill="white"/>
<path d="M0.658302 12.4002C1.02187 12.4002 1.31661 12.0915 1.31661 11.7108C1.31661 11.3301 1.02187 11.0215 0.658302 11.0215C0.294731 11.0215 0 11.3301 0 11.7108C0 12.0915 0.294731 12.4002 0.658302 12.4002Z" fill="white"/>
<path d="M6.5792 12.4002C6.94277 12.4002 7.2375 12.0915 7.2375 11.7108C7.2375 11.3301 6.94277 11.0215 6.5792 11.0215C6.21563 11.0215 5.9209 11.3301 5.9209 11.7108C5.9209 12.0915 6.21563 12.4002 6.5792 12.4002Z" fill="white"/>
<path d="M12.5001 12.4002C12.8637 12.4002 13.1584 12.0915 13.1584 11.7108C13.1584 11.3301 12.8637 11.0215 12.5001 11.0215C12.1365 11.0215 11.8418 11.3301 11.8418 11.7108C11.8418 12.0915 12.1365 12.4002 12.5001 12.4002Z" fill="white"/>
<path d="M18.421 12.4002C18.7846 12.4002 19.0793 12.0915 19.0793 11.7108C19.0793 11.3301 18.7846 11.0215 18.421 11.0215C18.0574 11.0215 17.7627 11.3301 17.7627 11.7108C17.7627 12.0915 18.0574 12.4002 18.421 12.4002Z" fill="white"/>
<path d="M24.3414 12.4002C24.705 12.4002 24.9997 12.0915 24.9997 11.7108C24.9997 11.3301 24.705 11.0215 24.3414 11.0215C23.9778 11.0215 23.6831 11.3301 23.6831 11.7108C23.6831 12.0915 23.9778 12.4002 24.3414 12.4002Z" fill="white"/>
<path d="M1.31661 17.2216C1.31661 17.6009 1.02056 17.9109 0.658302 17.9109C0.29604 17.9109 0 17.6009 0 17.2216C0 16.8422 0.29604 16.5322 0.658302 16.5322C1.02056 16.5322 1.31661 16.8422 1.31661 17.2216Z" fill="white"/>
<path d="M7.2375 17.2216C7.2375 17.6009 6.94146 17.9109 6.5792 17.9109C6.21694 17.9109 5.9209 17.6009 5.9209 17.2216C5.9209 16.8422 6.21694 16.5322 6.5792 16.5322C6.94146 16.5322 7.2375 16.8422 7.2375 17.2216Z" fill="white"/>
<path d="M13.1584 17.2216C13.1584 17.6009 12.8624 17.9109 12.5001 17.9109C12.1378 17.9109 11.8418 17.6009 11.8418 17.2216C11.8418 16.8422 12.1378 16.5322 12.5001 16.5322C12.8624 16.5322 13.1584 16.8422 13.1584 17.2216Z" fill="white"/>
<path d="M19.0793 17.2216C19.0793 17.6009 18.7833 17.9109 18.421 17.9109C18.0587 17.9109 17.7627 17.6009 17.7627 17.2216C17.7627 16.8422 18.0587 16.5322 18.421 16.5322C18.7833 16.5322 19.0793 16.8422 19.0793 17.2216Z" fill="white"/>
<path d="M24.9997 17.2216C24.9997 17.6009 24.7037 17.9109 24.3414 17.9109C23.9791 17.9109 23.6831 17.6009 23.6831 17.2216C23.6831 16.8422 23.9791 16.5322 24.3414 16.5322C24.7037 16.5322 24.9997 16.8422 24.9997 17.2216Z" fill="white"/>
<path d="M1.31661 22.7318C1.31661 23.1112 1.02056 23.4212 0.658302 23.4212C0.29604 23.4212 0 23.1112 0 22.7318C0 22.3525 0.29604 22.0425 0.658302 22.0425C1.02056 22.0425 1.31661 22.3525 1.31661 22.7318Z" fill="white"/>
<path d="M7.2375 22.7318C7.2375 23.1112 6.94146 23.4212 6.5792 23.4212C6.21694 23.4212 5.9209 23.1112 5.9209 22.7318C5.9209 22.3525 6.21694 22.0425 6.5792 22.0425C6.94146 22.0425 7.2375 22.3525 7.2375 22.7318Z" fill="white"/>
<path d="M13.1584 22.7318C13.1584 23.1112 12.8624 23.4212 12.5001 23.4212C12.1378 23.4212 11.8418 23.1112 11.8418 22.7318C11.8418 22.3525 12.1378 22.0425 12.5001 22.0425C12.8624 22.0425 13.1584 22.3525 13.1584 22.7318Z" fill="white"/>
<path d="M19.0793 22.7318C19.0793 23.1112 18.7833 23.4212 18.421 23.4212C18.0587 23.4212 17.7627 23.1112 17.7627 22.7318C17.7627 22.3525 18.0587 22.0425 18.421 22.0425C18.7833 22.0425 19.0793 22.3525 19.0793 22.7318Z" fill="white"/>
<path d="M24.9997 22.7318C24.9997 23.1112 24.7037 23.4212 24.3414 23.4212C23.9791 23.4212 23.6831 23.1112 23.6831 22.7318C23.6831 22.3525 23.9791 22.0425 24.3414 22.0425C24.7037 22.0425 24.9997 22.3525 24.9997 22.7318Z" fill="white"/>
<path d="M1.31661 28.2426C1.31661 28.6219 1.02056 28.9319 0.658302 28.9319C0.29604 28.9319 0 28.6219 0 28.2426C0 27.8632 0.29604 27.5532 0.658302 27.5532C1.02056 27.5532 1.31661 27.8632 1.31661 28.2426Z" fill="white"/>
<path d="M7.2375 28.2426C7.2375 28.6219 6.94146 28.9319 6.5792 28.9319C6.21694 28.9319 5.9209 28.6219 5.9209 28.2426C5.9209 27.8632 6.21694 27.5532 6.5792 27.5532C6.94146 27.5532 7.2375 27.8632 7.2375 28.2426Z" fill="white"/>
<path d="M13.1584 28.2426C13.1584 28.6219 12.8624 28.9319 12.5001 28.9319C12.1378 28.9319 11.8418 28.6219 11.8418 28.2426C11.8418 27.8632 12.1378 27.5532 12.5001 27.5532C12.8624 27.5532 13.1584 27.8632 13.1584 28.2426Z" fill="white"/>
<path d="M19.0793 28.2426C19.0793 28.6219 18.7833 28.9319 18.421 28.9319C18.0587 28.9319 17.7627 28.6219 17.7627 28.2426C17.7627 27.8632 18.0587 27.5532 18.421 27.5532C18.7833 27.5532 19.0793 27.8632 19.0793 28.2426Z" fill="white"/>
<path d="M24.9997 28.2426C24.9997 28.6219 24.7037 28.9319 24.3414 28.9319C23.9791 28.9319 23.6831 28.6219 23.6831 28.2426C23.6831 27.8632 23.9791 27.5532 24.3414 27.5532C24.7037 27.5532 24.9997 27.8632 24.9997 28.2426Z" fill="white"/>
<path d="M0.658302 34.4427C1.02187 34.4427 1.31661 34.134 1.31661 33.7533C1.31661 33.3726 1.02187 33.064 0.658302 33.064C0.294731 33.064 0 33.3726 0 33.7533C0 34.134 0.294731 34.4427 0.658302 34.4427Z" fill="white"/>
<path d="M6.5792 34.4427C6.94277 34.4427 7.2375 34.134 7.2375 33.7533C7.2375 33.3726 6.94277 33.064 6.5792 33.064C6.21563 33.064 5.9209 33.3726 5.9209 33.7533C5.9209 34.134 6.21563 34.4427 6.5792 34.4427Z" fill="white"/>
<path d="M12.5001 34.4427C12.8637 34.4427 13.1584 34.134 13.1584 33.7533C13.1584 33.3726 12.8637 33.064 12.5001 33.064C12.1365 33.064 11.8418 33.3726 11.8418 33.7533C11.8418 34.134 12.1365 34.4427 12.5001 34.4427Z" fill="white"/>
<path d="M18.421 34.4427C18.7846 34.4427 19.0793 34.134 19.0793 33.7533C19.0793 33.3726 18.7846 33.064 18.421 33.064C18.0574 33.064 17.7627 33.3726 17.7627 33.7533C17.7627 34.134 18.0574 34.4427 18.421 34.4427Z" fill="white"/>
<path d="M24.3414 34.4427C24.705 34.4427 24.9997 34.134 24.9997 33.7533C24.9997 33.3726 24.705 33.064 24.3414 33.064C23.9778 33.064 23.6831 33.3726 23.6831 33.7533C23.6831 34.134 23.9778 34.4427 24.3414 34.4427Z" fill="white"/>
<path d="M1.31661 39.268C1.31661 39.6473 1.02056 39.9573 0.658302 39.9573C0.29604 39.9573 0 39.6473 0 39.268C0 38.8886 0.29604 38.5786 0.658302 38.5786C1.02056 38.5786 1.31661 38.8845 1.31661 39.268Z" fill="white"/>
<path d="M7.2375 39.268C7.2375 39.6473 6.94146 39.9573 6.5792 39.9573C6.21694 39.9573 5.9209 39.6473 5.9209 39.268C5.9209 38.8886 6.21694 38.5786 6.5792 38.5786C6.94146 38.5786 7.2375 38.8845 7.2375 39.268Z" fill="white"/>
<path d="M13.1584 39.268C13.1584 39.6473 12.8624 39.9573 12.5001 39.9573C12.1378 39.9573 11.8418 39.6473 11.8418 39.268C11.8418 38.8886 12.1378 38.5786 12.5001 38.5786C12.8624 38.5786 13.1584 38.8845 13.1584 39.268Z" fill="white"/>
<path d="M19.0793 39.268C19.0793 39.6473 18.7833 39.9573 18.421 39.9573C18.0587 39.9573 17.7627 39.6473 17.7627 39.268C17.7627 38.8886 18.0587 38.5786 18.421 38.5786C18.7833 38.5786 19.0793 38.8845 19.0793 39.268Z" fill="white"/>
<path d="M24.9997 39.268C24.9997 39.6473 24.7037 39.9573 24.3414 39.9573C23.9791 39.9573 23.6831 39.6473 23.6831 39.268C23.6831 38.8886 23.9791 38.5786 24.3414 38.5786C24.7037 38.5786 24.9997 38.8845 24.9997 39.268Z" fill="white"/>
<path d="M1.31661 44.7787C1.31661 45.158 1.02056 45.468 0.658302 45.468C0.29604 45.468 0 45.158 0 44.7787C0 44.3994 0.29604 44.0894 0.658302 44.0894C1.02056 44.0894 1.31661 44.3953 1.31661 44.7787Z" fill="white"/>
<path d="M7.2375 44.7787C7.2375 45.158 6.94146 45.468 6.5792 45.468C6.21694 45.468 5.9209 45.158 5.9209 44.7787C5.9209 44.3994 6.21694 44.0894 6.5792 44.0894C6.94146 44.0894 7.2375 44.3953 7.2375 44.7787Z" fill="white"/>
<path d="M13.1584 44.7787C13.1584 45.158 12.8624 45.468 12.5001 45.468C12.1378 45.468 11.8418 45.158 11.8418 44.7787C11.8418 44.3994 12.1378 44.0894 12.5001 44.0894C12.8624 44.0894 13.1584 44.3953 13.1584 44.7787Z" fill="white"/>
<path d="M19.0793 44.7787C19.0793 45.158 18.7833 45.468 18.421 45.468C18.0587 45.468 17.7627 45.158 17.7627 44.7787C17.7627 44.3994 18.0587 44.0894 18.421 44.0894C18.7833 44.0894 19.0793 44.3953 19.0793 44.7787Z" fill="white"/>
<path d="M24.9997 44.7787C24.9997 45.158 24.7037 45.468 24.3414 45.468C23.9791 45.468 23.6831 45.158 23.6831 44.7787C23.6831 44.3994 23.9791 44.0894 24.3414 44.0894C24.7037 44.0894 24.9997 44.3953 24.9997 44.7787Z" fill="white"/>
<path d="M1.31661 50.2894C1.31661 50.6688 1.02056 50.9788 0.658302 50.9788C0.29604 50.9788 0 50.6688 0 50.2894C0 49.9101 0.29604 49.6001 0.658302 49.6001C1.02056 49.6001 1.31661 49.9101 1.31661 50.2894Z" fill="white"/>
<path d="M7.2375 50.2894C7.2375 50.6688 6.94146 50.9788 6.5792 50.9788C6.21694 50.9788 5.9209 50.6688 5.9209 50.2894C5.9209 49.9101 6.21694 49.6001 6.5792 49.6001C6.94146 49.6001 7.2375 49.9101 7.2375 50.2894Z" fill="white"/>
<path d="M13.1584 50.2894C13.1584 50.6688 12.8624 50.9788 12.5001 50.9788C12.1378 50.9788 11.8418 50.6688 11.8418 50.2894C11.8418 49.9101 12.1378 49.6001 12.5001 49.6001C12.8624 49.6001 13.1584 49.9101 13.1584 50.2894Z" fill="white"/>
<path d="M19.0793 50.2894C19.0793 50.6688 18.7833 50.9788 18.421 50.9788C18.0587 50.9788 17.7627 50.6688 17.7627 50.2894C17.7627 49.9101 18.0587 49.6001 18.421 49.6001C18.7833 49.6001 19.0793 49.9101 19.0793 50.2894Z" fill="white"/>
<path d="M24.9997 50.2894C24.9997 50.6688 24.7037 50.9788 24.3414 50.9788C23.9791 50.9788 23.6831 50.6688 23.6831 50.2894C23.6831 49.9101 23.9791 49.6001 24.3414 49.6001C24.7037 49.6001 24.9997 49.9101 24.9997 50.2894Z" fill="white"/>
<path d="M0.658302 56.4895C1.02187 56.4895 1.31661 56.1809 1.31661 55.8002C1.31661 55.4195 1.02187 55.1108 0.658302 55.1108C0.294731 55.1108 0 55.4195 0 55.8002C0 56.1809 0.294731 56.4895 0.658302 56.4895Z" fill="white"/>
<path d="M6.5792 56.4895C6.94277 56.4895 7.2375 56.1809 7.2375 55.8002C7.2375 55.4195 6.94277 55.1108 6.5792 55.1108C6.21563 55.1108 5.9209 55.4195 5.9209 55.8002C5.9209 56.1809 6.21563 56.4895 6.5792 56.4895Z" fill="white"/>
<path d="M12.5001 56.4895C12.8637 56.4895 13.1584 56.1809 13.1584 55.8002C13.1584 55.4195 12.8637 55.1108 12.5001 55.1108C12.1365 55.1108 11.8418 55.4195 11.8418 55.8002C11.8418 56.1809 12.1365 56.4895 12.5001 56.4895Z" fill="white"/>
<path d="M18.421 56.4895C18.7846 56.4895 19.0793 56.1809 19.0793 55.8002C19.0793 55.4195 18.7846 55.1108 18.421 55.1108C18.0574 55.1108 17.7627 55.4195 17.7627 55.8002C17.7627 56.1809 18.0574 56.4895 18.421 56.4895Z" fill="white"/>
<path d="M24.3414 56.4895C24.705 56.4895 24.9997 56.1809 24.9997 55.8002C24.9997 55.4195 24.705 55.1108 24.3414 55.1108C23.9778 55.1108 23.6831 55.4195 23.6831 55.8002C23.6831 56.1809 23.9778 56.4895 24.3414 56.4895Z" fill="white"/>
<path d="M1.31661 61.3104C1.31661 61.6898 1.02056 61.9998 0.658302 61.9998C0.29604 61.9998 0 61.6898 0 61.3104C0 60.9311 0.29604 60.6211 0.658302 60.6211C1.02056 60.6211 1.31661 60.9311 1.31661 61.3104Z" fill="white"/>
<path d="M7.2375 61.3104C7.2375 61.6898 6.94146 61.9998 6.5792 61.9998C6.21694 61.9998 5.9209 61.6898 5.9209 61.3104C5.9209 60.9311 6.21694 60.6211 6.5792 60.6211C6.94146 60.6211 7.2375 60.9311 7.2375 61.3104Z" fill="white"/>
<path d="M13.1584 61.3104C13.1584 61.6898 12.8624 61.9998 12.5001 61.9998C12.1378 61.9998 11.8418 61.6898 11.8418 61.3104C11.8418 60.9311 12.1378 60.6211 12.5001 60.6211C12.8624 60.6211 13.1584 60.9311 13.1584 61.3104Z" fill="white"/>
<path d="M19.0793 61.3104C19.0793 61.6898 18.7833 61.9998 18.421 61.9998C18.0587 61.9998 17.7627 61.6898 17.7627 61.3104C17.7627 60.9311 18.0587 60.6211 18.421 60.6211C18.7833 60.6211 19.0793 60.9311 19.0793 61.3104Z" fill="white"/>
<path d="M24.9997 61.3104C24.9997 61.6898 24.7037 61.9998 24.3414 61.9998C23.9791 61.9998 23.6831 61.6898 23.6831 61.3104C23.6831 60.9311 23.9791 60.6211 24.3414 60.6211C24.7037 60.6211 24.9997 60.9311 24.9997 61.3104Z" fill="white"/>
</svg>
