<svg width="48" height="115" viewBox="0 0 48 115" fill="none" xmlns="http://www.w3.org/2000/svg">
<path d="M1.2508 2.55723C1.9416 2.55723 2.50161 1.98477 2.50161 1.27861C2.50161 0.572447 1.9416 0 1.2508 0C0.56 0 0 0.572447 0 1.27861C0 1.98477 0.56 2.55723 1.2508 2.55723Z" fill="white"/>
<path d="M12.5008 2.55723C13.1916 2.55723 13.7516 1.98477 13.7516 1.27861C13.7516 0.572447 13.1916 0 12.5008 0C11.81 0 11.25 0.572447 11.25 1.27861C11.25 1.98477 11.81 2.55723 12.5008 2.55723Z" fill="white"/>
<path d="M23.7508 2.55723C24.4416 2.55723 25.0016 1.98477 25.0016 1.27861C25.0016 0.572447 24.4416 0 23.7508 0C23.06 0 22.5 0.572447 22.5 1.27861C22.5 1.98477 23.06 2.55723 23.7508 2.55723Z" fill="white"/>
<path d="M35.0003 2.55723C35.6911 2.55723 36.2511 1.98477 36.2511 1.27861C36.2511 0.572447 35.6911 0 35.0003 0C34.3095 0 33.7495 0.572447 33.7495 1.27861C33.7495 1.98477 34.3095 2.55723 35.0003 2.55723Z" fill="white"/>
<path d="M46.2503 2.55723C46.9411 2.55723 47.5011 1.98477 47.5011 1.27861C47.5011 0.572447 46.9411 0 46.2503 0C45.5595 0 44.9995 0.572447 44.9995 1.27861C44.9995 1.98477 45.5595 2.55723 46.2503 2.55723Z" fill="white"/>
<path d="M1.2508 12.7784C1.9416 12.7784 2.50161 12.206 2.50161 11.4998C2.50161 10.7937 1.9416 10.2212 1.2508 10.2212C0.56 10.2212 0 10.7937 0 11.4998C0 12.206 0.56 12.7784 1.2508 12.7784Z" fill="white"/>
<path d="M12.5008 12.7784C13.1916 12.7784 13.7516 12.206 13.7516 11.4998C13.7516 10.7937 13.1916 10.2212 12.5008 10.2212C11.81 10.2212 11.25 10.7937 11.25 11.4998C11.25 12.206 11.81 12.7784 12.5008 12.7784Z" fill="white"/>
<path d="M23.7508 12.7784C24.4416 12.7784 25.0016 12.206 25.0016 11.4998C25.0016 10.7937 24.4416 10.2212 23.7508 10.2212C23.06 10.2212 22.5 10.7937 22.5 11.4998C22.5 12.206 23.06 12.7784 23.7508 12.7784Z" fill="white"/>
<path d="M35.0003 12.7784C35.6911 12.7784 36.2511 12.206 36.2511 11.4998C36.2511 10.7937 35.6911 10.2212 35.0003 10.2212C34.3095 10.2212 33.7495 10.7937 33.7495 11.4998C33.7495 12.206 34.3095 12.7784 35.0003 12.7784Z" fill="white"/>
<path d="M46.2503 12.7784C46.9411 12.7784 47.5011 12.206 47.5011 11.4998C47.5011 10.7937 46.9411 10.2212 46.2503 10.2212C45.5595 10.2212 44.9995 10.7937 44.9995 11.4998C44.9995 12.206 45.5595 12.7784 46.2503 12.7784Z" fill="white"/>
<path d="M1.2508 23.0001C1.9416 23.0001 2.50161 22.4277 2.50161 21.7215C2.50161 21.0153 1.9416 20.4429 1.2508 20.4429C0.56 20.4429 0 21.0153 0 21.7215C0 22.4277 0.56 23.0001 1.2508 23.0001Z" fill="white"/>
<path d="M12.5008 23.0001C13.1916 23.0001 13.7516 22.4277 13.7516 21.7215C13.7516 21.0153 13.1916 20.4429 12.5008 20.4429C11.81 20.4429 11.25 21.0153 11.25 21.7215C11.25 22.4277 11.81 23.0001 12.5008 23.0001Z" fill="white"/>
<path d="M23.7508 23.0001C24.4416 23.0001 25.0016 22.4277 25.0016 21.7215C25.0016 21.0153 24.4416 20.4429 23.7508 20.4429C23.06 20.4429 22.5 21.0153 22.5 21.7215C22.5 22.4277 23.06 23.0001 23.7508 23.0001Z" fill="white"/>
<path d="M35.0003 23.0001C35.6911 23.0001 36.2511 22.4277 36.2511 21.7215C36.2511 21.0153 35.6911 20.4429 35.0003 20.4429C34.3095 20.4429 33.7495 21.0153 33.7495 21.7215C33.7495 22.4277 34.3095 23.0001 35.0003 23.0001Z" fill="white"/>
<path d="M46.2503 23.0001C46.9411 23.0001 47.5011 22.4277 47.5011 21.7215C47.5011 21.0153 46.9411 20.4429 46.2503 20.4429C45.5595 20.4429 44.9995 21.0153 44.9995 21.7215C44.9995 22.4277 45.5595 23.0001 46.2503 23.0001Z" fill="white"/>
<path d="M2.50161 31.9427C2.50161 32.6463 1.93911 33.2213 1.2508 33.2213C0.562488 33.2213 0 32.6463 0 31.9427C0 31.2391 0.562488 30.6641 1.2508 30.6641C1.93911 30.6641 2.50161 31.2391 2.50161 31.9427Z" fill="white"/>
<path d="M13.7516 31.9427C13.7516 32.6463 13.1891 33.2213 12.5008 33.2213C11.8125 33.2213 11.25 32.6463 11.25 31.9427C11.25 31.2391 11.8125 30.6641 12.5008 30.6641C13.1891 30.6641 13.7516 31.2391 13.7516 31.9427Z" fill="white"/>
<path d="M25.0016 31.9427C25.0016 32.6463 24.4391 33.2213 23.7508 33.2213C23.0625 33.2213 22.5 32.6463 22.5 31.9427C22.5 31.2391 23.0625 30.6641 23.7508 30.6641C24.4391 30.6641 25.0016 31.2391 25.0016 31.9427Z" fill="white"/>
<path d="M36.2511 31.9427C36.2511 32.6463 35.6886 33.2213 35.0003 33.2213C34.312 33.2213 33.7495 32.6463 33.7495 31.9427C33.7495 31.2391 34.312 30.6641 35.0003 30.6641C35.6886 30.6641 36.2511 31.2391 36.2511 31.9427Z" fill="white"/>
<path d="M47.5011 31.9427C47.5011 32.6463 46.9386 33.2213 46.2503 33.2213C45.562 33.2213 44.9995 32.6463 44.9995 31.9427C44.9995 31.2391 45.562 30.6641 46.2503 30.6641C46.9386 30.6641 47.5011 31.2391 47.5011 31.9427Z" fill="white"/>
<path d="M2.50161 42.1639C2.50161 42.8675 1.93911 43.4425 1.2508 43.4425C0.562488 43.4425 0 42.8675 0 42.1639C0 41.4603 0.562488 40.8853 1.2508 40.8853C1.93911 40.8853 2.50161 41.4603 2.50161 42.1639Z" fill="white"/>
<path d="M13.7516 42.1639C13.7516 42.8675 13.1891 43.4425 12.5008 43.4425C11.8125 43.4425 11.25 42.8675 11.25 42.1639C11.25 41.4603 11.8125 40.8853 12.5008 40.8853C13.1891 40.8853 13.7516 41.4603 13.7516 42.1639Z" fill="white"/>
<path d="M25.0016 42.1639C25.0016 42.8675 24.4391 43.4425 23.7508 43.4425C23.0625 43.4425 22.5 42.8675 22.5 42.1639C22.5 41.4603 23.0625 40.8853 23.7508 40.8853C24.4391 40.8853 25.0016 41.4603 25.0016 42.1639Z" fill="white"/>
<path d="M36.2511 42.1639C36.2511 42.8675 35.6886 43.4425 35.0003 43.4425C34.312 43.4425 33.7495 42.8675 33.7495 42.1639C33.7495 41.4603 34.312 40.8853 35.0003 40.8853C35.6886 40.8853 36.2511 41.4603 36.2511 42.1639Z" fill="white"/>
<path d="M47.5011 42.1639C47.5011 42.8675 46.9386 43.4425 46.2503 43.4425C45.562 43.4425 44.9995 42.8675 44.9995 42.1639C44.9995 41.4603 45.562 40.8853 46.2503 40.8853C46.9386 40.8853 47.5011 41.4603 47.5011 42.1639Z" fill="white"/>
<path d="M2.50161 52.3856C2.50161 53.0892 1.93911 53.6642 1.2508 53.6642C0.562488 53.6642 0 53.0892 0 52.3856C0 51.6819 0.562488 51.1069 1.2508 51.1069C1.93911 51.1069 2.50161 51.6819 2.50161 52.3856Z" fill="white"/>
<path d="M13.7516 52.3856C13.7516 53.0892 13.1891 53.6642 12.5008 53.6642C11.8125 53.6642 11.25 53.0892 11.25 52.3856C11.25 51.6819 11.8125 51.1069 12.5008 51.1069C13.1891 51.1069 13.7516 51.6819 13.7516 52.3856Z" fill="white"/>
<path d="M25.0016 52.3856C25.0016 53.0892 24.4391 53.6642 23.7508 53.6642C23.0625 53.6642 22.5 53.0892 22.5 52.3856C22.5 51.6819 23.0625 51.1069 23.7508 51.1069C24.4391 51.1069 25.0016 51.6819 25.0016 52.3856Z" fill="white"/>
<path d="M36.2511 52.3856C36.2511 53.0892 35.6886 53.6642 35.0003 53.6642C34.312 53.6642 33.7495 53.0892 33.7495 52.3856C33.7495 51.6819 34.312 51.1069 35.0003 51.1069C35.6886 51.1069 36.2511 51.6819 36.2511 52.3856Z" fill="white"/>
<path d="M47.5011 52.3856C47.5011 53.0892 46.9386 53.6642 46.2503 53.6642C45.562 53.6642 44.9995 53.0892 44.9995 52.3856C44.9995 51.6819 45.562 51.1069 46.2503 51.1069C46.9386 51.1069 47.5011 51.6819 47.5011 52.3856Z" fill="white"/>
<path d="M1.2508 63.8854C1.9416 63.8854 2.50161 63.3129 2.50161 62.6067C2.50161 61.9006 1.9416 61.3281 1.2508 61.3281C0.56 61.3281 0 61.9006 0 62.6067C0 63.3129 0.56 63.8854 1.2508 63.8854Z" fill="white"/>
<path d="M12.5008 63.8854C13.1916 63.8854 13.7516 63.3129 13.7516 62.6067C13.7516 61.9006 13.1916 61.3281 12.5008 61.3281C11.81 61.3281 11.25 61.9006 11.25 62.6067C11.25 63.3129 11.81 63.8854 12.5008 63.8854Z" fill="white"/>
<path d="M23.7508 63.8854C24.4416 63.8854 25.0016 63.3129 25.0016 62.6067C25.0016 61.9006 24.4416 61.3281 23.7508 61.3281C23.06 61.3281 22.5 61.9006 22.5 62.6067C22.5 63.3129 23.06 63.8854 23.7508 63.8854Z" fill="white"/>
<path d="M35.0003 63.8854C35.6911 63.8854 36.2511 63.3129 36.2511 62.6067C36.2511 61.9006 35.6911 61.3281 35.0003 61.3281C34.3095 61.3281 33.7495 61.9006 33.7495 62.6067C33.7495 63.3129 34.3095 63.8854 35.0003 63.8854Z" fill="white"/>
<path d="M46.2503 63.8854C46.9411 63.8854 47.5011 63.3129 47.5011 62.6067C47.5011 61.9006 46.9411 61.3281 46.2503 61.3281C45.5595 61.3281 44.9995 61.9006 44.9995 62.6067C44.9995 63.3129 45.5595 63.8854 46.2503 63.8854Z" fill="white"/>
<path d="M2.50161 72.8357C2.50161 73.5394 1.93911 74.1144 1.2508 74.1144C0.562488 74.1144 0 73.5394 0 72.8357C0 72.1321 0.562488 71.5571 1.2508 71.5571C1.93911 71.5571 2.50161 72.1246 2.50161 72.8357Z" fill="white"/>
<path d="M13.7516 72.8357C13.7516 73.5394 13.1891 74.1144 12.5008 74.1144C11.8125 74.1144 11.25 73.5394 11.25 72.8357C11.25 72.1321 11.8125 71.5571 12.5008 71.5571C13.1891 71.5571 13.7516 72.1246 13.7516 72.8357Z" fill="white"/>
<path d="M25.0016 72.8357C25.0016 73.5394 24.4391 74.1144 23.7508 74.1144C23.0625 74.1144 22.5 73.5394 22.5 72.8357C22.5 72.1321 23.0625 71.5571 23.7508 71.5571C24.4391 71.5571 25.0016 72.1246 25.0016 72.8357Z" fill="white"/>
<path d="M36.2511 72.8357C36.2511 73.5394 35.6886 74.1144 35.0003 74.1144C34.312 74.1144 33.7495 73.5394 33.7495 72.8357C33.7495 72.1321 34.312 71.5571 35.0003 71.5571C35.6886 71.5571 36.2511 72.1246 36.2511 72.8357Z" fill="white"/>
<path d="M47.5011 72.8357C47.5011 73.5394 46.9386 74.1144 46.2503 74.1144C45.562 74.1144 44.9995 73.5394 44.9995 72.8357C44.9995 72.1321 45.562 71.5571 46.2503 71.5571C46.9386 71.5571 47.5011 72.1246 47.5011 72.8357Z" fill="white"/>
<path d="M2.50161 83.0574C2.50161 83.761 1.93911 84.336 1.2508 84.336C0.562488 84.336 0 83.761 0 83.0574C0 82.3538 0.562488 81.7788 1.2508 81.7788C1.93911 81.7788 2.50161 82.3462 2.50161 83.0574Z" fill="white"/>
<path d="M13.7516 83.0574C13.7516 83.761 13.1891 84.336 12.5008 84.336C11.8125 84.336 11.25 83.761 11.25 83.0574C11.25 82.3538 11.8125 81.7788 12.5008 81.7788C13.1891 81.7788 13.7516 82.3462 13.7516 83.0574Z" fill="white"/>
<path d="M25.0016 83.0574C25.0016 83.761 24.4391 84.336 23.7508 84.336C23.0625 84.336 22.5 83.761 22.5 83.0574C22.5 82.3538 23.0625 81.7788 23.7508 81.7788C24.4391 81.7788 25.0016 82.3462 25.0016 83.0574Z" fill="white"/>
<path d="M36.2511 83.0574C36.2511 83.761 35.6886 84.336 35.0003 84.336C34.312 84.336 33.7495 83.761 33.7495 83.0574C33.7495 82.3538 34.312 81.7788 35.0003 81.7788C35.6886 81.7788 36.2511 82.3462 36.2511 83.0574Z" fill="white"/>
<path d="M47.5011 83.0574C47.5011 83.761 46.9386 84.336 46.2503 84.336C45.562 84.336 44.9995 83.761 44.9995 83.0574C44.9995 82.3538 45.562 81.7788 46.2503 81.7788C46.9386 81.7788 47.5011 82.3462 47.5011 83.0574Z" fill="white"/>
<path d="M2.50161 93.2786C2.50161 93.9822 1.93911 94.5572 1.2508 94.5572C0.562488 94.5572 0 93.9822 0 93.2786C0 92.575 0.562488 92 1.2508 92C1.93911 92 2.50161 92.575 2.50161 93.2786Z" fill="white"/>
<path d="M13.7516 93.2786C13.7516 93.9822 13.1891 94.5572 12.5008 94.5572C11.8125 94.5572 11.25 93.9822 11.25 93.2786C11.25 92.575 11.8125 92 12.5008 92C13.1891 92 13.7516 92.575 13.7516 93.2786Z" fill="white"/>
<path d="M25.0016 93.2786C25.0016 93.9822 24.4391 94.5572 23.7508 94.5572C23.0625 94.5572 22.5 93.9822 22.5 93.2786C22.5 92.575 23.0625 92 23.7508 92C24.4391 92 25.0016 92.575 25.0016 93.2786Z" fill="white"/>
<path d="M36.2511 93.2786C36.2511 93.9822 35.6886 94.5572 35.0003 94.5572C34.312 94.5572 33.7495 93.9822 33.7495 93.2786C33.7495 92.575 34.312 92 35.0003 92C35.6886 92 36.2511 92.575 36.2511 93.2786Z" fill="white"/>
<path d="M47.5011 93.2786C47.5011 93.9822 46.9386 94.5572 46.2503 94.5572C45.562 94.5572 44.9995 93.9822 44.9995 93.2786C44.9995 92.575 45.562 92 46.2503 92C46.9386 92 47.5011 92.575 47.5011 93.2786Z" fill="white"/>
<path d="M1.2508 104.778C1.9416 104.778 2.50161 104.206 2.50161 103.5C2.50161 102.794 1.9416 102.221 1.2508 102.221C0.56 102.221 0 102.794 0 103.5C0 104.206 0.56 104.778 1.2508 104.778Z" fill="white"/>
<path d="M12.5008 104.778C13.1916 104.778 13.7516 104.206 13.7516 103.5C13.7516 102.794 13.1916 102.221 12.5008 102.221C11.81 102.221 11.25 102.794 11.25 103.5C11.25 104.206 11.81 104.778 12.5008 104.778Z" fill="white"/>
<path d="M23.7508 104.778C24.4416 104.778 25.0016 104.206 25.0016 103.5C25.0016 102.794 24.4416 102.221 23.7508 102.221C23.06 102.221 22.5 102.794 22.5 103.5C22.5 104.206 23.06 104.778 23.7508 104.778Z" fill="white"/>
<path d="M35.0003 104.778C35.6911 104.778 36.2511 104.206 36.2511 103.5C36.2511 102.794 35.6911 102.221 35.0003 102.221C34.3095 102.221 33.7495 102.794 33.7495 103.5C33.7495 104.206 34.3095 104.778 35.0003 104.778Z" fill="white"/>
<path d="M46.2503 104.778C46.9411 104.778 47.5011 104.206 47.5011 103.5C47.5011 102.794 46.9411 102.221 46.2503 102.221C45.5595 102.221 44.9995 102.794 44.9995 103.5C44.9995 104.206 45.5595 104.778 46.2503 104.778Z" fill="white"/>
<path d="M2.50161 113.721C2.50161 114.425 1.93911 115 1.2508 115C0.562488 115 0 114.425 0 113.721C0 113.018 0.562488 112.443 1.2508 112.443C1.93911 112.443 2.50161 113.018 2.50161 113.721Z" fill="white"/>
<path d="M13.7516 113.721C13.7516 114.425 13.1891 115 12.5008 115C11.8125 115 11.25 114.425 11.25 113.721C11.25 113.018 11.8125 112.443 12.5008 112.443C13.1891 112.443 13.7516 113.018 13.7516 113.721Z" fill="white"/>
<path d="M25.0016 113.721C25.0016 114.425 24.4391 115 23.7508 115C23.0625 115 22.5 114.425 22.5 113.721C22.5 113.018 23.0625 112.443 23.7508 112.443C24.4391 112.443 25.0016 113.018 25.0016 113.721Z" fill="white"/>
<path d="M36.2511 113.721C36.2511 114.425 35.6886 115 35.0003 115C34.312 115 33.7495 114.425 33.7495 113.721C33.7495 113.018 34.312 112.443 35.0003 112.443C35.6886 112.443 36.2511 113.018 36.2511 113.721Z" fill="white"/>
<path d="M47.5011 113.721C47.5011 114.425 46.9386 115 46.2503 115C45.562 115 44.9995 114.425 44.9995 113.721C44.9995 113.018 45.562 112.443 46.2503 112.443C46.9386 112.443 47.5011 113.018 47.5011 113.721Z" fill="white"/>
</svg>
