<svg width="48" height="47" viewBox="0 0 48 47" fill="none" xmlns="http://www.w3.org/2000/svg">
<g clip-path="url(#clip0)">
<path d="M24.1 0C11.1413 0 0.599976 10.5423 0.599976 23.5C0.599976 36.4577 11.1413 47 24.1 47C37.0587 47 47.6 36.4577 47.6 23.5C47.6 10.5423 37.0587 0 24.1 0ZM33.4422 24.3233L19.7339 33.1358C19.5733 33.24 19.3878 33.2917 19.2042 33.2917C19.0435 33.2917 18.881 33.2515 18.7356 33.1722C18.42 33.0001 18.225 32.6711 18.225 32.3125V14.6875C18.225 14.3289 18.42 13.9999 18.7356 13.8278C19.0455 13.6576 19.4337 13.6681 19.7339 13.8642L33.4422 22.6767C33.7215 22.8564 33.8917 23.1672 33.8917 23.5C33.8917 23.8328 33.7215 24.1435 33.4422 24.3233Z" fill="black"/>
</g>
<defs>
<clipPath id="clip0">
<rect width="47" height="47" fill="white" transform="translate(0.599976)"/>
</clipPath>
</defs>
</svg>
