<svg width="108" height="140" viewBox="0 0 108 140" fill="none" xmlns="http://www.w3.org/2000/svg">
<g filter="url(#filter0_f)">
<path d="M89 138L2 51H89V138Z" fill="#EE885E" fill-opacity="0.4"/>
</g>
<g filter="url(#filter1_f)">
<path d="M133.993 8.01495C132.335 8.01495 130.985 6.66466 130.985 5.00748C130.985 3.3503 132.335 2 133.993 2C135.65 2 137 3.3503 137 5.00748C137 6.67489 135.65 8.01495 133.993 8.01495ZM137 23.0012C137 21.344 135.65 19.9937 133.993 19.9937C132.335 19.9937 130.985 21.344 130.985 23.0012C130.985 24.6584 132.335 26.0087 133.993 26.0087C135.65 26.0087 137 24.6686 137 23.0012ZM137 40.9949C137 39.3377 135.65 37.9874 133.993 37.9874C132.335 37.9874 130.985 39.3377 130.985 40.9949C130.985 42.6521 132.335 44.0024 133.993 44.0024C135.65 44.0126 137 42.6623 137 40.9949ZM137 58.9988C137 57.3416 135.65 55.9913 133.993 55.9913C132.335 55.9913 130.985 57.3416 130.985 58.9988C130.985 60.656 132.335 62.0063 133.993 62.0063C135.65 62.0063 137 60.656 137 58.9988ZM137 76.9925C137 75.3353 135.65 73.985 133.993 73.985C132.335 73.985 130.985 75.3353 130.985 76.9925C130.985 78.6497 132.335 80 133.993 80C135.65 80 137 78.6497 137 76.9925ZM119.006 5.00748C119.006 3.3503 117.656 2 115.999 2C114.342 2 112.991 3.3503 112.991 5.00748C112.991 6.66466 114.342 8.01495 115.999 8.01495C117.656 8.01495 119.006 6.67489 119.006 5.00748ZM119.006 23.0012C119.006 21.344 117.656 19.9937 115.999 19.9937C114.342 19.9937 112.991 21.344 112.991 23.0012C112.991 24.6584 114.342 26.0087 115.999 26.0087C117.656 26.0087 119.006 24.6686 119.006 23.0012ZM119.006 40.9949C119.006 39.3377 117.656 37.9874 115.999 37.9874C114.342 37.9874 112.991 39.3377 112.991 40.9949C112.991 42.6521 114.342 44.0024 115.999 44.0024C117.656 44.0126 119.006 42.6623 119.006 40.9949ZM119.006 58.9988C119.006 57.3416 117.656 55.9913 115.999 55.9913C114.342 55.9913 112.991 57.3416 112.991 58.9988C112.991 60.656 114.342 62.0063 115.999 62.0063C117.656 62.0063 119.006 60.656 119.006 58.9988ZM119.006 76.9925C119.006 75.3353 117.656 73.985 115.999 73.985C114.342 73.985 112.991 75.3353 112.991 76.9925C112.991 78.6497 114.342 80 115.999 80C117.656 80 119.006 78.6497 119.006 76.9925ZM101.002 5.00748C101.002 3.3503 99.6521 2 97.9949 2C96.3377 2 94.9874 3.3503 94.9874 5.00748C94.9874 6.66466 96.3377 8.01495 97.9949 8.01495C99.6623 8.01495 101.002 6.67489 101.002 5.00748ZM101.002 23.0012C101.002 21.344 99.6521 19.9937 97.9949 19.9937C96.3377 19.9937 94.9874 21.344 94.9874 23.0012C94.9874 24.6584 96.3377 26.0087 97.9949 26.0087C99.6623 26.0087 101.002 24.6686 101.002 23.0012ZM101.002 40.9949C101.002 39.3377 99.6521 37.9874 97.9949 37.9874C96.3377 37.9874 94.9874 39.3377 94.9874 40.9949C94.9874 42.6521 96.3377 44.0024 97.9949 44.0024C99.6623 44.0126 101.002 42.6623 101.002 40.9949ZM101.002 58.9988C101.002 57.3416 99.6521 55.9913 97.9949 55.9913C96.3377 55.9913 94.9874 57.3416 94.9874 58.9988C94.9874 60.656 96.3377 62.0063 97.9949 62.0063C99.6623 62.0063 101.002 60.656 101.002 58.9988ZM101.002 76.9925C101.002 75.3353 99.6521 73.985 97.9949 73.985C96.3377 73.985 94.9874 75.3353 94.9874 76.9925C94.9874 78.6497 96.3377 80 97.9949 80C99.6623 80 101.002 78.6497 101.002 76.9925ZM83.0086 5.00748C83.0086 3.3503 81.6583 2 80.0011 2C78.344 2 76.9937 3.3503 76.9937 5.00748C76.9937 6.66466 78.344 8.01495 80.0011 8.01495C81.6686 8.01495 83.0086 6.67489 83.0086 5.00748ZM83.0086 23.0012C83.0086 21.344 81.6583 19.9937 80.0011 19.9937C78.344 19.9937 76.9937 21.344 76.9937 23.0012C76.9937 24.6584 78.344 26.0087 80.0011 26.0087C81.6686 26.0087 83.0086 24.6686 83.0086 23.0012ZM83.0086 40.9949C83.0086 39.3377 81.6583 37.9874 80.0011 37.9874C78.344 37.9874 76.9937 39.3377 76.9937 40.9949C76.9937 42.6521 78.344 44.0024 80.0011 44.0024C81.6686 44.0126 83.0086 42.6623 83.0086 40.9949ZM83.0086 58.9988C83.0086 57.3416 81.6583 55.9913 80.0011 55.9913C78.344 55.9913 76.9937 57.3416 76.9937 58.9988C76.9937 60.656 78.344 62.0063 80.0011 62.0063C81.6686 62.0063 83.0086 60.656 83.0086 58.9988ZM83.0086 76.9925C83.0086 75.3353 81.6583 73.985 80.0011 73.985C78.344 73.985 76.9937 75.3353 76.9937 76.9925C76.9937 78.6497 78.344 80 80.0011 80C81.6686 80 83.0086 78.6497 83.0086 76.9925ZM65.015 5.00748C65.015 3.3503 63.6647 2 62.0075 2C60.3503 2 59 3.3503 59 5.00748C59 6.66466 60.3503 8.01495 62.0075 8.01495C63.6647 8.01495 65.015 6.67489 65.015 5.00748ZM65.015 23.0012C65.015 21.344 63.6647 19.9937 62.0075 19.9937C60.3503 19.9937 59 21.344 59 23.0012C59 24.6584 60.3503 26.0087 62.0075 26.0087C63.6647 26.0087 65.015 24.6686 65.015 23.0012ZM65.015 40.9949C65.015 39.3377 63.6647 37.9874 62.0075 37.9874C60.3503 37.9874 59 39.3377 59 40.9949C59 42.6521 60.3503 44.0024 62.0075 44.0024C63.6647 44.0024 65.015 42.6623 65.015 40.9949ZM65.015 58.9988C65.015 57.3416 63.6647 55.9913 62.0075 55.9913C60.3503 55.9913 59 57.3416 59 58.9988C59 60.656 60.3503 62.0063 62.0075 62.0063C63.6647 62.0063 65.015 60.656 65.015 58.9988ZM65.015 76.9925C65.015 75.3353 63.6647 73.985 62.0075 73.985C60.3503 73.985 59 75.3353 59 76.9925C59 78.6497 60.3503 80 62.0075 80C63.6647 80 65.015 78.6497 65.015 76.9925Z" fill="#244579" fill-opacity="0.4"/>
</g>
<defs>
<filter id="filter0_f" x="0" y="49" width="91" height="91" filterUnits="userSpaceOnUse" color-interpolation-filters="sRGB">
<feFlood flood-opacity="0" result="BackgroundImageFix"/>
<feBlend mode="normal" in="SourceGraphic" in2="BackgroundImageFix" result="shape"/>
<feGaussianBlur stdDeviation="1" result="effect1_foregroundBlur"/>
</filter>
<filter id="filter1_f" x="57" y="0" width="82" height="82" filterUnits="userSpaceOnUse" color-interpolation-filters="sRGB">
<feFlood flood-opacity="0" result="BackgroundImageFix"/>
<feBlend mode="normal" in="SourceGraphic" in2="BackgroundImageFix" result="shape"/>
<feGaussianBlur stdDeviation="1" result="effect1_foregroundBlur"/>
</filter>
</defs>
</svg>
